<svg xmlns="http://www.w3.org/2000/svg" x="0px" y="0px" width="24" height="24" viewBox="20,30,250,200">
<g fill="#ffffff" fill-rule="nonzero" stroke="none" stroke-width="0.5" stroke-linecap="butt" stroke-linejoin="miter" stroke-miterlimit="10" stroke-dasharray="" stroke-dashoffset="0" font-family="none" font-weight="none" font-size="none" text-anchor="none" style="mix-blend-mode: normal"><g transform="scale(5.12,5.12)"><path d="M 13.974609 6.53125 C 11.346609 6.53125 10.060453 7.1359531 8.5644531 8.6269531 C 7.0694531 10.117953 6.4628906 11.836313 6.4628906 13.945312 L 6.4628906 36.060547 C 6.4628906 38.169547 7.0264844 39.889859 8.5214844 41.380859 C 10.016484 42.871859 11.860609 43.517578 13.974609 43.517578 L 36.001953 43.517578 C 38.115953 43.517578 40.000094 42.827891 41.496094 41.337891 C 42.991094 39.846891 43.546875 38.126578 43.546875 36.017578 L 43.546875 14.033203 C 43.546875 11.923203 42.989094 10.118 41.496094 8.625 C 39.947094 7.076 38.313953 6.53125 36.001953 6.53125 L 13.974609 6.53125 z M 13.058594 7.5292969 L 36.830078 7.5292969 C 38.336078 7.5292969 39.911094 8.2754687 40.871094 9.4804688 C 41.614094 10.414469 42.457031 11.923188 42.457031 13.117188 L 42.457031 36.496094 C 42.457031 38.011094 41.569281 39.939391 40.363281 40.900391 C 39.430281 41.644391 37.673469 42.427734 36.480469 42.427734 L 13.101562 42.427734 C 11.594563 42.427734 10.100625 41.583906 9.140625 40.378906 C 8.396625 39.444906 7.6054688 37.908844 7.6054688 36.714844 L 7.5625 13.248047 C 7.5625 12.054047 8.4806094 10.457437 9.2246094 9.5234375 C 10.184609 8.3174375 11.551594 7.5292969 13.058594 7.5292969 z M 29.498047 17.425781 C 29.033047 17.425781 28.65625 17.802578 28.65625 18.267578 C 28.65625 18.732578 29.032047 19.109375 29.498047 19.109375 L 34.552734 19.109375 C 35.018734 19.109375 35.394531 18.732578 35.394531 18.267578 C 35.394531 17.802578 35.018734 17.425781 34.552734 17.425781 L 29.498047 17.425781 z M 13.996094 18.285156 L 13.996094 31.730469 L 20.390625 31.730469 C 20.923625 31.729469 24.919922 31.570719 24.919922 27.886719 C 24.919922 25.509719 23.453297 24.731031 22.654297 24.457031 C 23.186297 24.183031 24.079125 23.493484 24.078125 21.646484 C 24.078125 18.172484 20.789047 18.285156 20.123047 18.285156 L 13.996094 18.285156 z M 32.443359 20.802734 C 31.175359 20.802734 27.441406 21.382188 27.441406 26.242188 C 27.441406 30.739187 30.894938 31.681641 32.585938 31.681641 C 35.149938 31.681641 36.839594 29.898937 37.308594 28.335938 L 34.65625 28.335938 C 34.27825 28.748938 33.696141 29.15625 32.869141 29.15625 C 31.202141 29.15625 30.775391 27.496094 30.775391 27.496094 L 35.212891 27.496094 L 35.212891 27.498047 L 37.445312 27.498047 L 37.445312 27.496094 C 37.549313 24.567094 36.924359 20.802734 32.443359 20.802734 z M 17.357422 20.806641 L 19.357422 20.806641 C 19.556422 20.806641 20.857422 20.885719 20.857422 22.011719 C 20.857422 23.136719 19.858594 23.326172 19.558594 23.326172 L 17.357422 23.326172 L 17.357422 20.806641 z M 32.515625 22.978516 C 33.287625 22.992516 33.712453 23.173094 34.064453 23.496094 C 34.416453 23.819094 34.628219 24.337328 34.699219 24.986328 L 30.191406 24.986328 C 30.162406 23.940328 31.409625 22.958516 32.515625 22.978516 z M 17.357422 25.849609 L 19.818359 25.849609 C 20.353359 25.849609 21.53125 26.054984 21.53125 27.583984 C 21.53125 29.111984 20.031359 29.193359 19.818359 29.193359 L 17.357422 29.193359 L 17.357422 25.849609 z"></path></g></g>
</svg>